<svg width="51" height="50" viewBox="0 0 51 50" fill="none" xmlns="http://www.w3.org/2000/svg">
<g filter="url(#filter0_d_642_1091)">
<path d="M34.2533 24.1744L30.6281 27.3382L31.7141 32.0486C31.7715 32.2949 31.7551 32.5526 31.6669 32.7896C31.5787 33.0265 31.4226 33.2323 31.2181 33.381C31.0136 33.5297 30.7698 33.6149 30.5172 33.6258C30.2646 33.6368 30.0143 33.573 29.7978 33.4425L25.6894 30.9506L21.5899 33.4425C21.3734 33.573 21.1231 33.6368 20.8705 33.6258C20.6179 33.6149 20.3741 33.5297 20.1696 33.381C19.9651 33.2323 19.809 33.0265 19.7208 32.7896C19.6325 32.5526 19.6161 32.2949 19.6736 32.0486L20.758 27.343L17.1319 24.1744C16.9401 24.009 16.8015 23.7906 16.7333 23.5467C16.6651 23.3028 16.6704 23.0442 16.7486 22.8033C16.8269 22.5624 16.9744 22.35 17.1729 22.1927C17.3713 22.0353 17.6118 21.9401 17.8642 21.9189L22.6437 21.5049L24.5094 17.0549C24.6068 16.8214 24.7712 16.622 24.9817 16.4817C25.1923 16.3414 25.4396 16.2665 25.6926 16.2665C25.9456 16.2665 26.193 16.3414 26.4035 16.4817C26.6141 16.622 26.7784 16.8214 26.8759 17.0549L28.7472 21.5049L33.5251 21.9189C33.7775 21.9401 34.0179 22.0353 34.2164 22.1927C34.4149 22.35 34.5624 22.5624 34.6406 22.8033C34.7189 23.0442 34.7242 23.3028 34.656 23.5467C34.5878 23.7906 34.4491 24.009 34.2574 24.1744H34.2533Z" fill="#FEEA35"/>
</g>
<defs>
<filter id="filter0_d_642_1091" x="0.461092" y="0.0418415" width="50.4671" height="49.8099" filterUnits="userSpaceOnUse" color-interpolation-filters="sRGB">
<feFlood flood-opacity="0" result="BackgroundImageFix"/>
<feColorMatrix in="SourceAlpha" type="matrix" values="0 0 0 0 0 0 0 0 0 0 0 0 0 0 0 0 0 0 127 0" result="hardAlpha"/>
<feOffset/>
<feGaussianBlur stdDeviation="8.11235"/>
<feComposite in2="hardAlpha" operator="out"/>
<feColorMatrix type="matrix" values="0 0 0 0 0.996078 0 0 0 0 0.917647 0 0 0 0 0.207843 0 0 0 0.25 0"/>
<feBlend mode="normal" in2="BackgroundImageFix" result="effect1_dropShadow_642_1091"/>
<feBlend mode="normal" in="SourceGraphic" in2="effect1_dropShadow_642_1091" result="shape"/>
</filter>
</defs>
</svg>
